<?xml version="1.0" standalone="no"?>
<!DOCTYPE svg PUBLIC "-//W3C//DTD SVG 20010904//EN"
 "http://www.w3.org/TR/2001/REC-SVG-20010904/DTD/svg10.dtd">
<svg version="1.0" xmlns="http://www.w3.org/2000/svg"
 width="260.000000pt" height="260.000000pt" viewBox="0 0 260.000000 260.000000"
 preserveAspectRatio="xMidYMid meet">
<metadata>
Created by potrace 1.14, written by Peter Selinger 2001-2017
</metadata>
<g transform="translate(0.000000,260.000000) scale(0.100000,-0.100000)"
fill="#000000" stroke="none">
<path d="M1083 2329 c-188 -39 -499 -176 -478 -210 9 -14 121 -11 184 6 31 8
106 35 166 60 313 132 462 136 765 23 162 -60 320 -110 334 -105 6 2 -7 10
-29 17 -67 21 -275 106 -370 150 -49 23 -123 51 -164 61 -100 26 -282 25 -408
-2z"/>
<path d="M1688 2154 c55 -33 54 -61 -3 -82 -32 -13 -92 -16 -300 -16 -143 -1
-298 2 -345 6 l-85 6 115 -23 c175 -36 380 -50 523 -36 180 18 263 53 226 97
-15 19 -96 57 -144 68 -27 6 -25 4 13 -20z"/>
<path d="M490 2044 c-145 -26 -240 -77 -276 -146 -14 -26 -13 -28 13 -34 19
-5 37 -1 63 15 226 140 434 154 1028 66 199 -29 313 -31 532 -9 345 34 393 31
475 -32 43 -32 45 -20 5 34 -68 94 -139 101 -474 46 -270 -45 -413 -48 -601
-14 -380 69 -400 71 -570 75 -93 2 -181 2 -195 -1z"/>
<path d="M331 1758 c-5 -13 -23 -54 -40 -91 -17 -38 -31 -71 -31 -73 0 -2 23
-4 51 -4 l50 0 33 73 c56 121 56 117 -4 117 -43 0 -52 -3 -59 -22z"/>
<path d="M453 1688 l-40 -93 388 -3 389 -2 0 -295 0 -295 85 0 85 0 0 295 0
295 358 0 358 0 42 85 c23 47 42 90 42 95 0 7 -293 10 -833 10 l-834 0 -40
-92z"/>
<path d="M2185 1718 c-15 -35 -34 -78 -41 -95 l-14 -33 50 0 51 0 33 74 c55
121 55 116 -2 116 l-49 0 -28 -62z"/>
<path d="M794 1544 c-21 -5 -337 -344 -361 -387 -7 -12 -12 -41 -13 -65 0 -34
6 -48 26 -67 l27 -25 339 0 339 0 -12 23 c-7 12 -32 58 -57 101 l-45 79 -141
-5 c-78 -2 -149 -3 -159 0 -14 3 -3 19 55 81 40 42 111 118 157 169 l83 92
-65 0 c-35 0 -84 2 -108 4 -24 2 -53 2 -65 0z"/>
<path d="M1428 1543 c-31 -8 -3 -125 40 -168 56 -56 71 -60 297 -65 l209 -5
15 -26 c13 -24 13 -29 -2 -53 l-17 -26 -229 0 c-171 0 -231 -3 -238 -12 -6 -7
-32 -53 -58 -101 l-47 -88 315 3 315 3 43 30 c55 39 77 77 87 154 12 82 -2
167 -34 208 -48 63 -67 67 -289 71 -110 1 -210 5 -222 7 -14 3 -24 15 -28 34
-4 18 -14 31 -28 35 -25 6 -103 6 -129 -1z"/>
<path d="M310 821 c-11 -22 -13 -61 -4 -85 5 -13 22 -16 80 -16 l74 0 0 -30 0
-30 -65 0 c-37 0 -65 4 -65 10 0 6 -7 10 -15 10 -20 0 -20 -46 1 -54 9 -3 48
-6 89 -6 87 0 97 9 93 77 l-3 48 -77 3 -78 3 0 29 c0 30 0 30 60 30 45 0 60
-4 60 -14 0 -9 7 -12 20 -9 11 3 20 11 20 17 0 27 -26 36 -102 36 -66 0 -79
-3 -88 -19z"/>
<path d="M640 730 l0 -110 95 0 c88 0 95 1 95 20 0 18 -7 20 -75 20 l-75 0 0
30 c0 29 2 30 45 30 33 0 45 4 45 15 0 11 -12 15 -45 15 -43 0 -45 1 -45 30
l0 30 75 0 c60 0 75 3 75 15 0 12 -17 15 -95 15 l-95 0 0 -110z"/>
<path d="M950 730 c0 -103 1 -110 20 -110 17 0 20 7 20 45 0 37 3 45 19 45 10
0 37 -20 60 -45 29 -32 49 -45 68 -45 l27 0 -37 38 c-43 44 -45 52 -13 52 27
0 36 16 36 65 0 63 -3 65 -106 65 l-94 0 0 -110z m158 43 l3 -33 -60 0 -61 0
0 35 0 36 58 -3 c56 -3 57 -3 60 -35z"/>
<path d="M1220 835 c0 -18 107 -215 117 -215 7 0 19 15 27 33 8 17 30 67 50
110 33 72 34 77 15 77 -19 0 -40 -36 -81 -140 -9 -23 -12 -20 -48 58 -30 64
-43 82 -59 82 -12 0 -21 -2 -21 -5z"/>
<path d="M1590 730 c0 -103 1 -110 20 -110 19 0 20 7 20 110 0 103 -1 110 -20
110 -19 0 -20 -7 -20 -110z"/>
<path d="M1767 833 c-4 -3 -7 -50 -7 -104 0 -112 -3 -109 98 -109 79 0 90 6
98 48 6 28 4 32 -15 32 -14 0 -21 -6 -21 -20 0 -18 -7 -20 -60 -20 l-60 0 0
70 0 70 60 0 c52 0 60 -2 60 -19 0 -14 5 -18 20 -14 23 6 24 11 10 47 -9 25
-13 26 -93 26 -46 0 -87 -3 -90 -7z"/>
<path d="M2090 730 l0 -110 95 0 c88 0 95 1 95 20 0 18 -7 20 -75 20 l-75 0 0
30 c0 29 2 30 45 30 33 0 45 4 45 15 0 11 -12 15 -46 15 -44 0 -45 1 -42 28 3
26 5 27 76 30 55 2 72 6 72 17 0 12 -18 15 -95 15 l-95 0 0 -110z"/>
<path d="M631 449 c-13 -28 -19 -54 -15 -57 4 -4 9 -1 11 6 6 16 70 16 76 0 2
-7 8 -10 12 -5 11 10 -35 107 -50 107 -7 0 -22 -23 -34 -51z m49 -6 c0 -7 -7
-13 -15 -13 -16 0 -19 9 -9 35 5 13 8 14 15 3 5 -7 9 -19 9 -25z"/>
<path d="M770 445 l0 -56 48 3 47 3 0 50 0 50 -47 3 -48 3 0 -56z m80 25 c0
-5 -13 -10 -30 -10 -16 0 -30 5 -30 10 0 6 14 10 30 10 17 0 30 -4 30 -10z
m-2 -47 c2 -9 -7 -13 -27 -13 -21 0 -31 5 -31 16 0 19 51 16 58 -3z"/>
<path d="M910 490 c0 -5 9 -10 20 -10 17 0 20 -7 20 -45 0 -25 5 -45 10 -45 6
0 10 20 10 45 0 38 3 45 20 45 11 0 20 5 20 10 0 6 -22 10 -50 10 -27 0 -50
-4 -50 -10z"/>
<path d="M1054 487 c-3 -8 -4 -32 -2 -53 l3 -39 55 0 55 0 0 50 0 50 -53 3
c-38 2 -54 -1 -58 -11z m94 -39 c-3 -29 -7 -33 -35 -36 -32 -3 -33 -2 -33 32
0 35 1 36 36 36 34 0 35 -1 32 -32z"/>
<path d="M1222 448 l3 -53 48 -3 c42 -3 47 -1 47 17 0 12 -4 21 -10 21 -5 0
-10 -4 -10 -10 0 -5 -13 -10 -30 -10 -28 0 -30 3 -30 35 0 32 2 35 30 35 17 0
30 -4 30 -10 0 -5 5 -10 10 -10 6 0 10 9 10 20 0 17 -7 20 -51 20 l-50 0 3
-52z"/>
<path d="M1360 445 l0 -55 50 0 c28 0 50 5 50 10 0 6 -16 10 -35 10 -24 0 -35
5 -35 15 0 8 9 15 20 15 11 0 20 5 20 10 0 6 -9 10 -20 10 -11 0 -20 5 -20 10
0 6 16 10 35 10 19 0 35 5 35 10 0 6 -22 10 -50 10 l-50 0 0 -55z"/>
<path d="M1500 445 c0 -30 5 -55 10 -55 6 0 10 9 10 19 0 16 8 20 38 23 34 3
37 6 40 36 l3 32 -50 0 -51 0 0 -55z m80 19 c0 -11 -8 -14 -27 -12 -39 4 -42
28 -4 28 21 0 31 -5 31 -16z"/>
<path d="M1650 445 l0 -56 48 3 47 3 0 50 0 50 -47 3 -48 3 0 -56z m80 25 c0
-5 -13 -10 -30 -10 -16 0 -30 5 -30 10 0 6 14 10 30 10 17 0 30 -4 30 -10z
m-2 -47 c2 -9 -7 -13 -27 -13 -21 0 -31 5 -31 16 0 19 51 16 58 -3z"/>
<path d="M1800 445 c0 -30 5 -55 10 -55 6 0 10 25 10 55 0 30 -4 55 -10 55 -5
0 -10 -25 -10 -55z"/>
<path d="M1874 486 c-3 -8 -4 -31 -2 -52 3 -39 3 -39 51 -42 42 -3 47 -1 47
17 0 12 -4 21 -10 21 -5 0 -10 -4 -10 -10 0 -5 -13 -10 -30 -10 -28 0 -30 3
-30 35 0 32 2 35 30 35 17 0 30 -4 30 -10 0 -5 5 -10 10 -10 6 0 10 9 10 20 0
17 -7 20 -45 20 -30 0 -47 -5 -51 -14z"/>
<path d="M980 286 c0 -12 8 -14 33 -10 25 5 29 3 17 -6 -11 -9 -12 -13 -2 -17
25 -10 12 -25 -18 -19 -23 4 -30 2 -30 -10 0 -11 9 -14 38 -12 36 3 37 4 37
43 0 39 -1 40 -37 43 -29 2 -38 -1 -38 -12z"/>
<path d="M1100 255 c0 -44 0 -45 34 -45 22 0 36 6 40 16 9 23 -12 44 -42 44
-31 0 -18 16 18 23 18 3 15 5 -12 6 l-38 1 0 -45z m60 -15 c0 -5 -12 -10 -26
-10 -14 0 -23 4 -19 10 3 6 15 10 26 10 10 0 19 -4 19 -10z"/>
<path d="M1214 286 c-3 -8 -4 -27 -2 -43 3 -25 7 -28 46 -31 l42 -3 0 45 0 46
-40 0 c-26 0 -43 -5 -46 -14z m66 -31 c0 -20 -5 -25 -25 -25 -20 0 -25 5 -25
25 0 20 5 25 25 25 20 0 25 -5 25 -25z"/>
<path d="M1340 255 c0 -28 4 -44 10 -40 6 3 10 12 10 20 0 7 12 15 28 17 19 2
27 9 27 23 0 16 -8 21 -37 23 l-38 3 0 -46z m58 18 c2 -8 -5 -13 -17 -13 -12
0 -21 6 -21 16 0 18 31 15 38 -3z"/>
<path d="M1463 255 c0 -27 2 -38 4 -22 2 15 2 37 0 50 -2 12 -4 0 -4 -28z"/>
<path d="M1520 255 l0 -46 38 3 c36 3 37 4 37 43 0 39 -1 40 -37 43 l-38 3 0
-46z m60 20 c0 -8 -9 -15 -20 -15 -11 0 -20 7 -20 15 0 8 9 15 20 15 11 0 20
-7 20 -15z m0 -35 c0 -5 -9 -10 -20 -10 -11 0 -20 5 -20 10 0 6 9 10 20 10 11
0 20 -4 20 -10z"/>
</g>
</svg>
